<?xml version="1.0" standalone="no"?>
<!DOCTYPE svg PUBLIC "-//W3C//DTD SVG 20010904//EN"
 "http://www.w3.org/TR/2001/REC-SVG-20010904/DTD/svg10.dtd">
<svg version="1.0" xmlns="http://www.w3.org/2000/svg"
 width="500.000000pt" height="500.000000pt" viewBox="0 0 500.000000 500.000000"
 preserveAspectRatio="xMidYMid meet">
<metadata>
Created by potrace 1.14, written by Peter Selinger 2001-2017
</metadata>
<g transform="translate(0.000000,500.000000) scale(0.100000,-0.100000)"
fill="#000000" stroke="none">
<path d="M2484 3663 c-10 -11 -32 -37 -49 -58 -16 -20 -42 -52 -56 -69 -66
-81 -241 -386 -222 -386 5 0 3 -4 -3 -8 -14 -9 -83 -212 -86 -255 -2 -17 -6
-35 -11 -38 -4 -3 -9 -40 -11 -83 -2 -43 -6 -79 -8 -81 -5 -5 -1 -105 6 -175
11 -99 39 -214 73 -300 4 -8 7 -17 7 -20 1 -3 5 -11 9 -17 5 -7 6 -13 3 -13
-7 0 92 -199 115 -231 10 -14 16 -29 12 -33 -3 -3 -1 -6 5 -6 6 0 13 -8 17
-18 3 -11 23 -43 45 -73 22 -30 48 -65 58 -79 9 -13 32 -41 50 -61 17 -20 32
-42 32 -48 0 -7 5 -9 10 -6 6 3 10 1 10 -4 0 -16 17 -13 32 5 7 8 25 29 41 45
15 16 27 32 27 34 0 2 22 35 50 72 27 37 53 73 57 79 10 12 29 45 62 104 14
25 29 47 33 48 4 2 8 7 8 12 0 5 14 39 32 77 18 37 32 70 33 73 0 3 9 28 19
55 28 76 29 79 31 90 2 6 8 30 15 55 27 99 32 142 33 280 1 112 -5 167 -30
270 -8 36 -16 72 -17 80 -1 9 -5 20 -9 26 -3 6 -14 33 -23 60 -23 68 -90 207
-136 282 -21 34 -38 67 -38 72 0 6 -4 10 -8 10 -7 0 -40 49 -45 67 -1 4 -11
17 -22 28 -11 12 -31 36 -45 54 -14 18 -39 49 -56 68 -31 36 -31 36 -50 16z"/>
<path d="M1565 3476 c-1 -6 -10 -31 -18 -56 -32 -91 -67 -222 -61 -231 3 -5 0
-9 -7 -9 -7 0 -10 -2 -7 -5 3 -3 0 -34 -8 -68 -33 -163 -38 -433 -8 -568 3
-13 7 -35 10 -49 4 -23 18 -71 30 -110 3 -8 5 -17 6 -20 0 -3 6 -16 13 -30 7
-14 27 -56 46 -95 37 -77 127 -215 141 -215 4 0 8 -5 8 -10 0 -6 13 -24 29
-39 16 -16 27 -32 24 -35 -4 -3 1 -6 10 -6 10 0 17 -7 17 -16 0 -8 5 -12 10
-9 6 3 10 -1 10 -9 0 -8 6 -19 14 -23 8 -4 32 -25 55 -45 22 -21 42 -38 45
-38 3 0 18 -12 34 -27 16 -16 39 -35 52 -43 12 -8 28 -20 34 -25 15 -14 160
-107 217 -139 55 -31 69 -32 69 -7 0 11 5 21 11 23 9 3 -21 50 -64 98 -12 14
-22 29 -67 95 -8 13 -30 49 -49 81 -19 33 -40 66 -47 74 -7 8 -13 18 -13 23 0
4 -8 21 -17 38 -17 34 -82 184 -85 197 -1 4 -6 18 -11 32 -6 14 -11 32 -12 40
-1 8 -7 33 -14 55 -6 22 -14 56 -17 75 -3 19 -8 42 -11 51 -2 9 -7 56 -9 103
-2 48 -7 91 -10 96 -3 5 -1 12 5 15 8 5 8 11 1 19 -6 7 -8 15 -5 18 3 3 7 35
10 69 2 35 6 75 9 89 22 112 28 137 37 148 6 6 8 12 4 12 -3 0 7 37 23 82 24
65 27 85 18 100 -7 10 -15 18 -18 18 -3 0 -17 9 -30 21 -56 48 -76 65 -91 74
-8 6 -56 38 -107 73 -50 34 -91 59 -91 55 0 -5 -4 -2 -8 4 -13 21 -103 62
-107 49z"/>
<path d="M3375 3456 c-33 -16 -62 -33 -65 -36 -3 -3 -29 -21 -58 -38 -30 -18
-59 -37 -65 -42 -7 -6 -46 -36 -87 -67 -41 -32 -87 -69 -101 -83 -26 -25 -26
-27 -11 -61 8 -19 16 -38 17 -44 2 -5 12 -41 24 -80 11 -38 23 -82 26 -97 3
-16 7 -38 9 -50 25 -129 25 -362 1 -448 -2 -8 -7 -28 -9 -45 -3 -16 -10 -45
-16 -64 -5 -19 -7 -38 -4 -42 3 -5 1 -9 -5 -9 -8 0 -13 -12 -26 -70 -1 -3 -9
-22 -18 -44 -9 -21 -17 -41 -17 -43 0 -6 -102 -209 -126 -250 -11 -18 -22 -33
-26 -33 -5 0 -8 -6 -8 -13 0 -8 -9 -24 -20 -37 -11 -13 -20 -27 -20 -31 0 -4
-7 -15 -16 -23 -9 -9 -33 -40 -55 -68 -38 -51 -42 -76 -19 -101 8 -9 64 15 94
42 10 9 19 14 20 12 2 -6 90 50 94 61 2 4 7 6 12 3 4 -2 15 4 25 15 10 11 24
20 31 20 7 0 14 3 16 8 2 4 23 23 48 42 73 57 153 132 242 227 51 55 152 199
163 232 3 11 11 21 16 21 6 0 7 5 4 10 -3 6 -1 10 4 10 6 0 10 3 9 8 -4 13 13
52 22 52 5 0 7 6 4 14 -3 8 -1 17 5 21 6 3 11 15 11 26 0 10 5 19 11 19 5 0 8
3 6 8 -3 4 4 40 14 81 30 116 34 155 33 321 0 166 -9 249 -40 390 -3 14 -7 35
-10 47 -2 12 -9 35 -15 50 -6 16 -10 29 -10 31 1 1 1 3 0 5 0 1 -2 9 -4 17 -2
8 -14 47 -27 86 l-23 71 -60 -31z"/>
<path d="M1046 2242 c-3 -2 -71 -9 -171 -15 -16 -2 -36 -6 -42 -10 -7 -5 -13
-6 -13 -3 0 2 -15 0 -32 -5 -18 -6 -42 -12 -53 -13 -37 -6 -147 -37 -186 -53
l-38 -15 22 -41 c12 -23 25 -43 30 -45 4 -2 7 -9 7 -16 0 -7 9 -23 20 -36 11
-13 20 -27 20 -32 0 -5 18 -33 40 -62 22 -29 40 -55 40 -58 0 -15 223 -248
276 -289 50 -38 144 -99 153 -99 6 0 11 -4 11 -10 0 -5 6 -10 13 -10 8 0 35
-11 62 -25 27 -13 52 -22 57 -19 4 3 8 1 8 -4 0 -4 35 -17 78 -27 98 -24 97
-24 161 -30 30 -2 56 -6 58 -9 2 -2 19 0 37 4 19 4 40 4 47 -1 7 -4 19 -3 26
3 7 6 13 6 13 1 0 -5 9 -9 20 -9 11 0 20 3 20 6 0 3 26 5 58 4 31 0 62 2 67 5
6 3 24 6 40 7 17 0 50 7 75 14 25 7 52 13 60 14 32 4 95 19 105 25 6 3 18 7
27 8 10 2 32 9 50 17 l33 13 -33 19 c-91 52 -222 138 -250 165 -12 11 -22 17
-22 14 0 -4 -6 0 -14 7 -8 7 -31 27 -52 43 -68 53 -238 228 -287 295 -26 36
-54 74 -62 85 -8 10 -15 25 -15 32 0 7 -3 13 -7 13 -5 0 -19 22 -32 49 -19 38
-31 51 -55 56 -17 4 -38 9 -46 11 -8 2 -33 6 -55 8 -22 3 -40 5 -40 6 0 4 -69
11 -97 9 -7 0 -39 1 -71 3 -32 2 -59 2 -61 0z"/>
<path d="M3825 2242 c-2 -3 -26 -6 -53 -7 -27 -1 -53 -4 -58 -7 -5 -3 -19 -4
-31 -3 -13 1 -23 -1 -23 -4 0 -3 -10 -7 -23 -8 -12 -1 -31 -4 -42 -7 -11 -2
-23 -5 -27 -5 -4 -1 -19 -22 -33 -48 -36 -68 -102 -169 -130 -199 -5 -6 -28
-33 -50 -59 -91 -110 -311 -305 -344 -305 -5 0 -14 -6 -18 -13 -9 -16 -63 -52
-63 -43 0 4 -12 -5 -27 -19 -15 -14 -33 -25 -39 -25 -6 0 -17 -7 -24 -15 -7
-8 -16 -13 -20 -10 -4 3 -13 -2 -20 -10 -7 -8 -19 -15 -26 -15 -8 0 -14 -5
-14 -11 0 -5 5 -7 10 -4 6 3 10 2 10 -2 0 -8 92 -39 143 -49 29 -5 62 -13 90
-20 12 -3 34 -7 50 -8 15 0 27 -3 27 -7 0 -5 39 -9 127 -13 23 -1 46 -5 49 -9
4 -4 13 -2 21 4 9 8 13 8 13 0 0 -7 8 -8 23 -2 12 5 31 5 42 1 11 -4 26 -3 33
2 7 6 12 7 12 1 0 -5 12 -8 28 -6 38 3 102 13 132 19 14 3 34 7 45 9 84 15
308 111 347 148 7 7 31 25 53 42 157 115 315 303 434 513 44 79 43 93 -9 104
-14 3 -61 16 -105 28 -44 12 -90 24 -102 26 -13 2 -35 6 -50 9 -41 7 -101 15
-158 19 -27 3 -52 5 -55 6 -13 6 -68 4 -87 -2 -13 -4 -23 -4 -23 1 0 8 -27 11
-35 3z"/>
</g>
</svg>
